<svg xmlns="http://www.w3.org/2000/svg" width="311.852" height="64" viewBox="0 0 311.852 64" style="color:#18201D" role="img">
  <title>Sunday Ledger B+A Horizontal Lockup</title>
  <desc>PROPOSED — NOT OWNER APPROVED — NOT LEGALLY CLEARED — NOT FOR PRODUCTION. Primary B+A product lockup with recalibrated gap, visual weight, and optical vertical alignment.</desc>
  <metadata>{&quot;status&quot;: &quot;PROPOSED — NOT OWNER APPROVED — NOT LEGALLY CLEARED — NOT FOR PRODUCTION&quot;, &quot;title&quot;: &quot;Sunday Ledger B+A Horizontal Lockup&quot;, &quot;source_commit&quot;: &quot;15f37a503a83f053ec1afbc78e161d2e6138a884&quot;, &quot;canonical&quot;: true, &quot;raster_embeds&quot;: false, &quot;external_resources&quot;: false}</metadata>
  <g><g fill="currentColor" fill-rule="nonzero"><path d="M11 7H18V45C18 49 21 51 26 51H46V56H25C16 56 11 51 11 43Z"/><rect x="38" y="16" width="18" height="8" rx="4" transform="rotate(14 47 20)"/><rect x="31" y="30" width="22" height="8" rx="4" transform="rotate(14 42 34)"/></g></g><g fill="currentColor" transform="translate(75 17.1) scale(0.790155)"><path d="M14.197183098591548 32.67605633802817Q10.732394366197182 32.67605633802817 8.154929577464788 31.366197183098592Q5.577464788732394 30.056338028169016 4.077464788732394 27.753521126760564Q2.5774647887323945 25.450704225352112 2.323943661971831 22.408450704225352L6.126760563380282 22.154929577464788Q6.591549295774648 25.492957746478872 8.640845070422536 27.309859154929576Q10.690140845070422 29.12676056338028 14.28169014084507 29.12676056338028Q17.408450704225352 29.12676056338028 19.161971830985916 27.922535211267604Q20.91549295774648 26.718309859154928 20.91549295774648 24.3943661971831Q20.91549295774648 23.0 20.26056338028169 21.922535211267608Q19.6056338028169 20.845070422535212 17.767605633802816 19.93661971830986Q15.929577464788732 19.028169014084508 12.338028169014084 18.140845070422536Q8.873239436619718 17.253521126760564 6.823943661971831 16.19718309859155Q4.774647887323944 15.140845070422536 3.866197183098592 13.619718309859156Q2.9577464788732395 12.098591549295776 2.9577464788732395 9.859154929577464Q2.9577464788732395 7.323943661971832 4.161971830985915 5.401408450704226Q5.366197183098591 3.47887323943662 7.605633802816902 2.401408450704226Q9.845070422535212 1.3239436619718319 12.929577464788732 1.3239436619718319Q16.225352112676056 1.3239436619718319 18.591549295774648 2.570422535211268Q20.95774647887324 3.816901408450704 22.352112676056336 5.971830985915494Q23.746478873239436 8.126760563380284 24.08450704225352 10.87323943661972L20.281690140845072 11.126760563380284Q19.901408450704224 8.380281690140844 18.06338028169014 6.626760563380282Q16.225352112676056 4.87323943661972 12.845070422535212 4.87323943661972Q10.056338028169014 4.87323943661972 8.408450704225352 6.204225352112678Q6.76056338028169 7.535211267605636 6.76056338028169 9.690140845070424Q6.76056338028169 11.08450704225352 7.415492957746479 11.992957746478872Q8.070422535211268 12.901408450704224 9.76056338028169 13.598591549295774Q11.450704225352112 14.295774647887324 14.619718309859154 15.098591549295776Q18.380281690140844 16.028169014084508 20.598591549295776 17.316901408450704Q22.816901408450704 18.605633802816904 23.767605633802816 20.295774647887324Q24.718309859154928 21.985915492957744 24.718309859154928 24.140845070422536Q24.718309859154928 26.76056338028169 23.366197183098592 28.683098591549296Q22.014084507042252 30.6056338028169 19.647887323943664 31.640845070422536Q17.281690140845072 32.67605633802817 14.197183098591548 32.67605633802817Z"/><path d="M37.774647887323944 32.50704225352113Q34.436619718309856 32.50704225352113 32.42957746478873 30.24647887323944Q30.422535211267604 27.985915492957748 30.422535211267604 24.014084507042256V9.6056338028169H33.97183098591549V23.04225352112676Q33.97183098591549 26.295774647887324 35.13380281690141 27.838028169014084Q36.29577464788733 29.380281690140844 38.70422535211267 29.380281690140844Q41.36619718309859 29.380281690140844 42.88732394366197 27.66901408450704Q44.40845070422535 25.95774647887324 44.40845070422535 22.95774647887324V9.6056338028169H47.95774647887324V32.0H44.57746478873239V28.366197183098592Q42.71830985915493 32.50704225352113 37.774647887323944 32.50704225352113Z"/><path d="M54.368309859154934 32.0V9.6056338028169H57.621830985915494L57.706338028169014 13.619718309859156Q58.59366197183099 11.295774647887324 60.43169014084508 10.19718309859155Q62.26971830985916 9.098591549295776 64.59366197183098 9.098591549295776Q67.17112676056338 9.098591549295776 68.84014084507042 10.23943661971831Q70.50915492957746 11.380281690140844 71.33309859154929 13.30281690140845Q72.15704225352113 15.225352112676056 72.15704225352113 17.591549295774648V32.0H68.60774647887324V18.605633802816904Q68.60774647887324 15.47887323943662 67.48802816901409 13.852112676056338Q66.36830985915493 12.225352112676056 63.8330985915493 12.225352112676056Q61.2556338028169 12.225352112676056 59.58661971830986 13.852112676056338Q57.91760563380282 15.47887323943662 57.91760563380282 18.605633802816904V32.0Z"/><path d="M86.51126760563379 32.50704225352113Q83.59577464788731 32.50704225352113 81.4619718309859 31.070422535211268Q79.3281690140845 29.633802816901408 78.18732394366197 27.014084507042256Q77.04647887323944 24.3943661971831 77.04647887323944 20.80281690140845Q77.04647887323944 17.211267605633804 78.18732394366197 14.591549295774648Q79.3281690140845 11.971830985915492 81.4619718309859 10.535211267605634Q83.59577464788731 9.098591549295776 86.51126760563379 9.098591549295776Q88.75070422535211 9.098591549295776 90.60985915492958 10.049295774647888Q92.46901408450704 11.0 93.39859154929577 12.732394366197184V2.0H96.94788732394366V32.0H93.73661971830985L93.60985915492957 28.619718309859156Q92.68028169014084 30.43661971830986 90.77887323943662 31.471830985915496Q88.87746478873238 32.50704225352113 86.51126760563379 32.50704225352113ZM87.22957746478872 29.12676056338028Q90.22957746478872 29.12676056338028 91.81408450704225 26.887323943661972Q93.39859154929577 24.647887323943664 93.39859154929577 20.80281690140845Q93.39859154929577 16.91549295774648 91.81408450704225 14.69718309859155Q90.22957746478872 12.47887323943662 87.22957746478872 12.47887323943662Q84.27183098591549 12.47887323943662 82.51830985915493 14.69718309859155Q80.76478873239436 16.91549295774648 80.76478873239436 20.80281690140845Q80.76478873239436 24.647887323943664 82.51830985915493 26.887323943661972Q84.27183098591549 29.12676056338028 87.22957746478872 29.12676056338028Z"/><path d="M109.4007042253521 32.50704225352113Q105.93591549295773 32.50704225352113 103.88661971830984 30.901408450704224Q101.83732394366197 29.295774647887324 101.83732394366197 26.422535211267608Q101.83732394366197 23.549295774647888 103.52746478873239 21.901408450704224Q105.2176056338028 20.253521126760564 108.89366197183098 19.577464788732392L116.83732394366197 18.098591549295776Q116.83732394366197 12.47887323943662 111.51338028169013 12.47887323943662Q109.18943661971831 12.47887323943662 107.83732394366197 13.514084507042254Q106.48521126760562 14.549295774647888 105.9781690140845 16.492957746478872L102.2176056338028 16.19718309859155Q102.85140845070421 13.028169014084508 105.28098591549295 11.063380281690142Q107.71056338028168 9.098591549295776 111.51338028169013 9.098591549295776Q115.82323943661972 9.098591549295776 118.10492957746479 11.528169014084508Q120.38661971830984 13.95774647887324 120.38661971830984 18.225352112676056V27.47887323943662Q120.38661971830984 28.87323943661972 121.56971830985916 28.87323943661972H122.45704225352112V32.0Q121.94999999999999 32.08450704225352 121.10492957746479 32.08450704225352Q119.1612676056338 32.08450704225352 118.16830985915493 31.30281690140845Q117.17535211267605 30.52112676056338 116.92183098591548 28.746478873239436L116.87957746478872 28.535211267605632Q116.03450704225351 30.267605633802816 113.96408450704224 31.387323943661972Q111.89366197183098 32.50704225352113 109.4007042253521 32.50704225352113ZM109.7387323943662 29.380281690140844Q113.11901408450703 29.380281690140844 114.9781690140845 27.478873239436616Q116.83732394366197 25.577464788732392 116.83732394366197 22.7887323943662V21.183098591549296L109.56971830985916 22.535211267605632Q107.28802816901408 22.95774647887324 106.42183098591549 23.823943661971832Q105.5556338028169 24.690140845070424 105.5556338028169 26.08450704225352Q105.5556338028169 27.647887323943664 106.67535211267605 28.514084507042256Q107.7950704225352 29.380281690140844 109.7387323943662 29.380281690140844Z"/><path d="M127.2619718309859 38.33802816901408V35.2112676056338H129.8394366197183Q131.02253521126758 35.2112676056338 131.59295774647887 34.852112676056336Q132.16338028169014 34.49295774647887 132.45915492957744 33.690140845070424L133.2619718309859 31.577464788732396H132.03661971830985L123.8394366197183 9.6056338028169H127.72676056338027L134.40281690140844 28.281690140845072L140.78309859154928 9.6056338028169H144.67042253521126L135.58591549295772 34.83098591549296Q134.95211267605632 36.647887323943664 133.6845070422535 37.49295774647887Q132.41690140845068 38.33802816901408 130.17746478873238 38.33802816901408Z"/><path d="M160.4612676056338 32.0V2.0H165.95422535211267V27.225352112676056H180.19366197183098V32.0Z"/><path d="M194.5598591549296 32.50704225352113Q191.17957746478874 32.50704225352113 188.68661971830988 31.049295774647888Q186.193661971831 29.591549295774648 184.84154929577466 26.929577464788732Q183.4894366197183 24.267605633802816 183.4894366197183 20.718309859154928Q183.4894366197183 17.16901408450704 184.84154929577466 14.507042253521126Q186.193661971831 11.845070422535212 188.6654929577465 10.387323943661972Q191.13732394366198 8.929577464788732 194.4330985915493 8.929577464788732Q197.6443661971831 8.929577464788732 200.05281690140845 10.366197183098592Q202.46126760563382 11.802816901408452 203.79225352112678 14.507042253521128Q205.1232394366197 17.211267605633804 205.1232394366197 21.014084507042256V22.23943661971831H189.10915492957747Q189.23591549295776 25.197183098591548 190.71478873239437 26.697183098591548Q192.193661971831 28.197183098591548 194.60211267605635 28.197183098591548Q198.2781690140845 28.197183098591548 199.29225352112678 25.070422535211268L204.8274647887324 25.408450704225352Q203.89788732394368 28.704225352112676 201.17253521126761 30.605633802816904Q198.44718309859155 32.50704225352113 194.5598591549296 32.50704225352113ZM189.10915492957747 18.605633802816904H199.54577464788733Q199.33450704225353 15.859154929577464 197.9612676056338 14.528169014084506Q196.58802816901408 13.197183098591548 194.4330985915493 13.197183098591548Q192.23591549295776 13.197183098591548 190.84154929577466 14.591549295774648Q189.44718309859155 15.985915492957748 189.10915492957747 18.605633802816904Z"/><path d="M217.4492957746479 32.50704225352113Q214.57605633802817 32.50704225352113 212.48450704225354 31.070422535211268Q210.39295774647888 29.633802816901408 209.25211267605636 26.992957746478872Q208.1112676056338 24.352112676056336 208.1112676056338 20.718309859154928Q208.1112676056338 17.12676056338028 209.27323943661972 14.464788732394366Q210.43521126760564 11.802816901408452 212.5267605633803 10.366197183098592Q214.61830985915495 8.929577464788732 217.4492957746479 8.929577464788732Q219.8154929577465 8.929577464788732 221.61126760563383 9.901408450704226Q223.40704225352113 10.87323943661972 224.33661971830986 12.647887323943664V2.0H229.7450704225352V32.0H224.59014084507044L224.46338028169015 28.661971830985916Q223.5338028169014 30.47887323943662 221.67464788732394 31.492957746478872Q219.8154929577465 32.50704225352113 217.4492957746479 32.50704225352113ZM219.09718309859156 28.112676056338028Q221.59014084507044 28.112676056338028 222.96338028169015 26.190140845070424Q224.33661971830986 24.267605633802816 224.33661971830986 20.718309859154928Q224.33661971830986 17.12676056338028 222.98450704225354 15.225352112676056Q221.6323943661972 13.323943661971832 219.09718309859156 13.323943661971832Q216.64647887323946 13.323943661971832 215.1887323943662 15.288732394366198Q213.73098591549297 17.253521126760564 213.73098591549297 20.718309859154928Q213.73098591549297 24.098591549295776 215.1887323943662 26.105633802816904Q216.64647887323946 28.112676056338028 219.09718309859156 28.112676056338028Z"/><path d="M244.94436619718311 38.84507042253521Q240.50774647887326 38.84507042253521 237.97253521126763 37.070422535211264Q235.437323943662 35.29577464788733 234.6767605633803 32.42253521126761L240.25422535211268 32.04225352112676Q240.6767605633803 33.352112676056336 241.71197183098593 34.04929577464789Q242.74718309859156 34.74647887323944 244.94436619718311 34.74647887323944Q247.43732394366197 34.74647887323944 248.78943661971832 33.62676056338029Q250.14154929577467 32.50704225352113 250.14154929577467 30.140845070422536V27.267605633802816Q249.33873239436622 28.91549295774648 247.56408450704225 29.908450704225352Q245.78943661971832 30.901408450704224 243.59225352112676 30.901408450704224Q240.8035211267606 30.901408450704224 238.62746478873242 29.528169014084504Q236.45140845070424 28.154929577464788 235.22605633802817 25.683098591549296Q234.0007042253521 23.211267605633804 234.0007042253521 19.95774647887324Q234.0007042253521 16.704225352112676 235.22605633802817 14.232394366197184Q236.45140845070424 11.760563380281692 238.58521126760564 10.345070422535212Q240.71901408450705 8.929577464788732 243.50774647887326 8.929577464788732Q245.9161971830986 8.929577464788732 247.69084507042254 10.028169014084508Q249.46549295774648 11.126760563380284 250.3105633802817 12.943661971830988V9.43661971830986H255.59225352112676V30.014084507042252Q255.59225352112676 34.36619718309859 252.6767605633803 36.6056338028169Q249.7612676056338 38.84507042253521 244.94436619718311 38.84507042253521ZM244.85985915492958 26.676056338028168Q247.26830985915493 26.676056338028168 248.72605633802817 24.880281690140844Q250.18380281690142 23.08450704225352 250.18380281690142 19.91549295774648Q250.22605633802817 16.7887323943662 248.76830985915495 14.971830985915494Q247.3105633802817 13.154929577464788 244.85985915492958 13.154929577464788Q242.3669014084507 13.154929577464788 240.993661971831 14.992957746478874Q239.62042253521128 16.83098591549296 239.62042253521128 19.91549295774648Q239.62042253521128 23.0 241.03591549295777 24.838028169014084Q242.45140845070424 26.676056338028168 244.85985915492958 26.676056338028168Z"/><path d="M270.91830985915493 32.50704225352113Q267.53802816901407 32.50704225352113 265.0450704225352 31.049295774647888Q262.5521126760563 29.591549295774648 261.2 26.929577464788732Q259.84788732394367 24.267605633802816 259.84788732394367 20.718309859154928Q259.84788732394367 17.16901408450704 261.2 14.507042253521126Q262.5521126760563 11.845070422535212 265.02394366197177 10.387323943661972Q267.4957746478873 8.929577464788732 270.79154929577464 8.929577464788732Q274.00281690140844 8.929577464788732 276.4112676056338 10.366197183098592Q278.8197183098591 11.802816901408452 280.1507042253521 14.507042253521128Q281.48169014084505 17.211267605633804 281.48169014084505 21.014084507042256V22.23943661971831H265.4676056338028Q265.5943661971831 25.197183098591548 267.0732394366197 26.697183098591548Q268.5521126760563 28.197183098591548 270.96056338028166 28.197183098591548Q274.6366197183099 28.197183098591548 275.6507042253521 25.070422535211268L281.18591549295775 25.408450704225352Q280.256338028169 28.704225352112676 277.5309859154929 30.605633802816904Q274.8056338028169 32.50704225352113 270.91830985915493 32.50704225352113ZM265.4676056338028 18.605633802816904H275.9042253521127Q275.69295774647884 15.859154929577464 274.3197183098591 14.528169014084506Q272.9464788732394 13.197183098591548 270.79154929577464 13.197183098591548Q268.5943661971831 13.197183098591548 267.2 14.591549295774648Q265.8056338028169 15.985915492957748 265.4676056338028 18.605633802816904Z"/><path d="M285.7795774647887 32.0V9.43661971830986H290.84999999999997L290.97676056338025 13.83098591549296Q291.6528169014084 11.549295774647888 292.962676056338 10.492957746478874Q294.2725352112676 9.43661971830986 296.3852112676056 9.43661971830986H298.4556338028169V14.08450704225352H296.3429577464789Q293.76549295774646 14.08450704225352 292.47676056338025 15.246478873239436Q291.18802816901405 16.408450704225352 291.18802816901405 18.985915492957744V32.0Z"/></g>
</svg>
